<svg width="40" height="40" viewBox="0 0 40 40" fill="none" xmlns="http://www.w3.org/2000/svg">
<circle cx="20" cy="20" r="20" fill="#88C425"/>
<path d="M32.9 34L23.45 24.55C22.7 25.15 21.8375 25.625 20.8625 25.975C19.8875 26.325 18.85 26.5 17.75 26.5C15.025 26.5 12.719 25.5565 10.832 23.6695C8.944 21.7815 8 19.475 8 16.75C8 14.025 8.944 11.7185 10.832 9.8305C12.719 7.9435 15.025 7 17.75 7C20.475 7 22.7815 7.9435 24.6695 9.8305C26.5565 11.7185 27.5 14.025 27.5 16.75C27.5 17.85 27.325 18.8875 26.975 19.8625C26.625 20.8375 26.15 21.7 25.55 22.45L35 31.9L32.9 34ZM17.75 23.5C19.625 23.5 21.219 22.844 22.532 21.532C23.844 20.219 24.5 18.625 24.5 16.75C24.5 14.875 23.844 13.281 22.532 11.968C21.219 10.656 19.625 10 17.75 10C15.875 10 14.281 10.656 12.968 11.968C11.656 13.281 11 14.875 11 16.75C11 18.625 11.656 20.219 12.968 21.532C14.281 22.844 15.875 23.5 17.75 23.5Z" fill="black"/>
</svg>
