<svg width="40" height="40" viewBox="0 0 40 40" fill="none" xmlns="http://www.w3.org/2000/svg">
<circle cx="20" cy="20" r="20" fill="#88C425"/>
<path d="M10.3333 28.3333C9.69167 28.3333 9.14256 28.105 8.686 27.6485C8.22867 27.1912 8 26.6417 8 26V12C8 11.3583 8.22867 10.8092 8.686 10.3527C9.14256 9.89532 9.69167 9.66666 10.3333 9.66666H29C29.6417 9.66666 30.1912 9.89532 30.6485 10.3527C31.1051 10.8092 31.3333 11.3583 31.3333 12V26C31.3333 26.6417 31.1051 27.1912 30.6485 27.6485C30.1912 28.105 29.6417 28.3333 29 28.3333H10.3333ZM19.6667 20.1667L10.3333 14.3333V26H29V14.3333L19.6667 20.1667ZM19.6667 17.8333L29 12H10.3333L19.6667 17.8333ZM10.3333 14.3333V12V26V14.3333Z" fill="#232222"/>
</svg>
